# xmcd
#
# Track frame offsets: 
#        150
#        17066
#        28538
#        40477
#        58475
#        71181
#        83870
#        96680
#        126134
#        137435
#
# Disc length: 2124 seconds
#
# Revision: 0
# Processed by: cddbd v1.5.2PL0 Copyright (c) Steve Scherf et al.
# Submitted via: ExactAudioCopy v0.99pb4
#
DISCID=93084a0a
DTITLE=Logic - Shades Of Ireland
DYEAR=2004
DGENRE=Country
TTITLE0=I Will Love You All My Life
TTITLE1=My Shoes Keep Walking Back To You
TTITLE2=The Irish Rover
TTITLE3=Bunch Of Thyme
TTITLE4=My Irish Country Home
TTITLE5=Cryin Time
TTITLE6=Never Ending Song Of Love
TTITLE7=The Green Fields Of France
TTITLE8=The Leaving Of Liverpool
TTITLE9=The Fields Of Athenry
EXTD=
EXTT0=
EXTT1=
EXTT2=
EXTT3=
EXTT4=
EXTT5=
EXTT6=
EXTT7=
EXTT8=
EXTT9=
PLAYORDER=
